Coordinates
version=1
nRows=43
nColumns=12
inDegrees=yes

Units are S.I. units (second, meters, Newtons, ...)
Angles are in degrees

endheader
time	SC_y	SC_z	SC_x	AC_y	AC_z	AC_x	GH_y	GH_z	GH_yy	EL_x	PS_y
       0.0               -46.8          14.12           69.2          32.15        -0.9593         -18.32          6.427          82.89          23.68          111.1          14.91
   0.04565               -46.8          14.12           69.2          32.15        -0.9589         -18.32          6.411          82.88           23.7          111.1          14.93
    0.0913               -46.8          14.12          69.19          32.15        -0.9586         -18.31          6.395          82.86          23.72          111.1          14.95
    0.1369               -46.8          14.12          69.18          32.16        -0.9583         -18.31          6.378          82.85          23.74          111.0          14.97
    0.1826               -46.8          14.12          69.18          32.16        -0.9579         -18.31          6.359          82.83          23.76          111.0          14.99
    0.2282               -46.8          14.12          69.17          32.16        -0.9575          -18.3          6.339          82.81          23.78          111.0          15.02
    0.2739               -46.8          14.12          69.17          32.17        -0.9571          -18.3          6.318          82.79          23.81          111.0          15.04
    0.3195               -46.8          14.12          69.16          32.17        -0.9567          -18.3          6.296          82.77          23.84          111.0          15.07
    0.3652               -46.8          14.13          69.15          32.18        -0.9562         -18.29          6.272          82.75          23.87          111.0          15.09
    0.4108               -46.8          14.13          69.14          32.18        -0.9557         -18.29          6.246          82.73           23.9          111.0          15.12
    0.4565               -46.8          14.13          69.14          32.19        -0.9551         -18.29          6.218           82.7          23.93          110.9          15.16
    0.5021               -46.8          14.13          69.13          32.19        -0.9545         -18.28          6.188          82.67          23.97          110.9          15.19
    0.5478               -46.8          14.13          69.12           32.2        -0.9539         -18.28          6.156          82.65          24.01          110.9          15.23
    0.5934               -46.8          14.13          69.11           32.2        -0.9532         -18.27          6.121          82.61          24.05          110.9          15.27
    0.6391               -46.8          14.13          69.09          32.21        -0.9525         -18.26          6.083          82.58           24.1          110.8          15.31
    0.6847               -46.8          14.13          69.08          32.22        -0.9517         -18.26          6.042          82.54          24.15          110.8          15.36
    0.7304               -46.8          14.13          69.07          32.23        -0.9508         -18.25          5.998           82.5          24.21          110.8          15.41
     0.776               -46.8          14.13          69.05          32.23        -0.9498         -18.24          5.949          82.46          24.26          110.7          15.47
    0.8217               -46.8          14.13          69.04          32.24        -0.9488         -18.23          5.896          82.41          24.33          110.7          15.53
    0.8673               -46.8          14.13          69.02          32.25        -0.9476         -18.23          5.839          82.36           24.4          110.7           15.6
     0.913               -46.8          14.13           69.0          32.27        -0.9464         -18.22          5.775           82.3          24.48          110.6          15.67
    0.9586               -46.8          14.13          68.98          32.28         -0.945          -18.2          5.705          82.24          24.57          110.6          15.75
     1.004               -46.8          14.13          68.95          32.29        -0.9435         -18.19          5.628          82.17          24.66          110.5          15.84
      1.05               -46.8          14.14          68.93          32.31        -0.9418         -18.18          5.542          82.09          24.77          110.5          15.94
     1.096               -46.8          14.14           68.9          32.33        -0.9399         -18.16          5.447          82.01          24.88          110.4          16.05
     1.141               -46.8          14.14          68.86          32.35        -0.9378         -18.15          5.341          81.91          25.01          110.3          16.17
     1.187               -46.8          14.14          68.83          32.37        -0.9355         -18.13          5.222           81.8          25.16          110.2          16.31
     1.233               -46.8          14.14          68.79          32.39        -0.9328         -18.11          5.088          81.68          25.33          110.2          16.47
     1.278               -46.8          14.14          68.74          32.42        -0.9298         -18.08          4.937          81.55          25.51          110.1          16.64
     1.324              -46.79          14.15          68.69          32.45        -0.9264         -18.05          4.765          81.39          25.72          109.9          16.84
     1.369              -46.79          14.15          68.63          32.49        -0.9226         -18.02          4.569          81.22          25.96          109.8          17.07
     1.415              -46.79          14.15          68.56          32.53        -0.9181         -17.99          4.344          81.01          26.24          109.6          17.33
     1.461              -46.79          14.16          68.48          32.57         -0.913         -17.95          4.084          80.78          26.56          109.5          17.63
     1.506              -46.79          14.16          68.38          32.63        -0.9071          -17.9          3.783          80.51          26.93          109.3          17.98
     1.552              -46.79          14.17          68.27          32.69        -0.9001         -17.84           3.43          80.19          27.37          109.0          18.39
     1.598              -46.79          14.17          68.14          32.77        -0.8919         -17.78          3.014          79.81          27.88          108.7          18.88
     1.643              -46.79          14.18          67.99          32.86        -0.8821          -17.7          2.519          79.37          28.49          108.4          19.45
     1.689              -46.79          14.19          67.81          32.97        -0.8704          -17.6          1.926          78.83          29.22          108.0          20.14
     1.735              -46.78           14.2          67.58           33.1        -0.8562         -17.49          1.209          78.19           30.1          107.5          20.97
      1.78              -46.78          14.21          67.31          33.26         -0.839         -17.35         0.3328           77.4          31.18          106.9          21.99
     1.826              -46.78          14.22          66.98          33.46        -0.8176         -17.18        -0.7486          76.42          32.51          106.1          23.24
     1.872              -46.77          14.24          66.56           33.7         -0.791         -16.96         -2.097           75.2          34.17          105.2          24.81
     1.917              -46.77          14.27          66.04          34.01        -0.7575         -16.69         -3.796          73.67          36.26          104.0          26.78
